<svg xmlns="http://www.w3.org/2000/svg" width="23.69" height="23.69" viewBox="0 0 23.69 23.69"><title>alerts</title><path d="M6.3,16.43H18.7L12.5,5.69Zm6.2-.77a.78.78,0,1,1,.78-.78A.78.78,0,0,1,12.5,15.66ZM13.15,9v3.74a.65.65,0,1,1-1.3,0V9a.65.65,0,0,1,1.3,0Z" transform="translate(-0.66 -0.66)" style="fill:#9ccb3c"/><path d="M12.5.66A11.84,11.84,0,1,0,24.34,12.5,11.84,11.84,0,0,0,12.5.66ZM20,17.18a.5.5,0,0,1-.43.25H5.43A.5.5,0,0,1,5,16.68L12.07,4.44a.52.52,0,0,1,.87,0L20,16.68A.5.5,0,0,1,20,17.18Z" transform="translate(-0.66 -0.66)" style="fill:#9ccb3c"/></svg>