<svg xmlns="http://www.w3.org/2000/svg" width="23.69" height="23.69" viewBox="0 0 23.69 23.69"><title>backups</title><path d="M16.63,8.11c-3.39,0-4-1.29-4-1.3a.17.17,0,0,0-.15-.11h0a.17.17,0,0,0-.16.1s-.59,1.3-4,1.3a.17.17,0,0,0-.17.17V14c0,2.36,4.06,4.16,4.22,4.24h.14c.17-.08,4.23-1.88,4.23-4.24V8.28A.17.17,0,0,0,16.63,8.11ZM16.21,10a17.52,17.52,0,0,0-3.92,5.43.11.11,0,0,1-.08.07h0a.11.11,0,0,1-.08,0L9.24,12.61a5.44,5.44,0,0,1,.88-.76l1.57,1.23a18.4,18.4,0,0,1,4.21-3.62,3,3,0,0,1,.34.46A.11.11,0,0,1,16.21,10Z" transform="translate(-0.66 -0.66)" style="fill:#9ccb3c"/><path d="M12.5.66A11.84,11.84,0,1,0,24.34,12.5,11.84,11.84,0,0,0,12.5.66ZM18,14.47c0,3-5.18,5.32-5.4,5.41l-.09,0-.09,0c-.22-.1-5.4-2.4-5.4-5.41V7.11a.22.22,0,0,1,.22-.21c4.31,0,5.06-1.64,5.07-1.66a.22.22,0,0,1,.2-.13h0a.22.22,0,0,1,.2.14s.74,1.66,5.07,1.66a.22.22,0,0,1,.22.21Z" transform="translate(-0.66 -0.66)" style="fill:#9ccb3c"/></svg>