<svg xmlns="http://www.w3.org/2000/svg" width="18" height="18" viewBox="0 0 11.31 11.31"><title>backup-btn-grey</title><path d="M13,12.34V9.65a.57.57,0,1,0-1.14,0v3a.35.35,0,0,0,.1.25l1.6,1.59a.57.57,0,1,0,.81-.81Z" transform="translate(-6.85 -6.85)" style="fill:#1f1f1f"/><path d="M17.12,9.3A5.47,5.47,0,0,0,12.5,6.85,5.67,5.67,0,0,0,6.85,12.5h.94A4.71,4.71,0,0,1,16.46,10l-1.13,1.13h2.83V8.26l-1,1Z" transform="translate(-6.85 -6.85)" style="fill:#1f1f1f"/><path d="M12.5,17.21a4.69,4.69,0,0,1-4-2.17l1.13-1.13H6.85v2.83l1-1a5.58,5.58,0,0,0,4.62,2.45,5.67,5.67,0,0,0,5.65-5.65h-.94a4.73,4.73,0,0,1-4.71,4.71Z" transform="translate(-6.85 -6.85)" style="fill:#1f1f1f"/></svg>