<svg xmlns="http://www.w3.org/2000/svg" width="23.69" height="23.69" viewBox="0 0 23.69 23.69"><title>billing</title><path d="M12.5.66A11.84,11.84,0,1,0,24.34,12.5,11.84,11.84,0,0,0,12.5.66ZM17.93,19a.44.44,0,0,1-.44.44h-10A.44.44,0,0,1,7.07,19V6a.44.44,0,0,1,.44-.44h7.11a.41.41,0,0,1,.31.13L17.8,8.6a.41.41,0,0,1,.13.31v4.21L17,14V9.36H14.62a.44.44,0,0,1-.44-.44V6.49H8v12H17v-1l.89-.89Zm-2.41-7.43h-3a.44.44,0,0,1,0-.89h3a.44.44,0,0,1,0,.89ZM16,13a.44.44,0,0,1-.44.44h-3a.44.44,0,0,1,0-.89h3A.44.44,0,0,1,16,13Zm-6.78.35-.09-.07.21-.6.16.11A1.08,1.08,0,0,0,10,13c.24,0,.4-.12.4-.3s-.05-.26-.43-.41-.85-.41-.85-.94a.88.88,0,0,1,.7-.86v-.5h.59v.46a1.32,1.32,0,0,1,.53.17l.11.06-.22.59-.15-.09A1,1,0,0,0,10.2,11c-.32,0-.34.19-.34.25s.07.22.48.39a1.07,1.07,0,0,1,.81,1,.94.94,0,0,1-.73.9V14H9.82v-.48A1.43,1.43,0,0,1,9.18,13.34Zm10.63.29-3.56,3.56a.44.44,0,0,1-.63,0l-1.44-1.44a.44.44,0,0,1,.63-.63l1.13,1.13L19.18,13a.44.44,0,0,1,.63.63Z" transform="translate(-0.66 -0.66)" style="fill:#9ccb3c"/></svg>