<svg xmlns="http://www.w3.org/2000/svg" width="23.69" height="23.69" viewBox="0 0 23.69 23.69"><title>discount</title><path d="M10.9,10.53a.54.54,0,0,0-.39.16.56.56,0,0,0-.16.39.54.54,0,0,0,.16.39.56.56,0,0,0,.39.16.55.55,0,0,0,.39-.94A.56.56,0,0,0,10.9,10.53Z" transform="translate(-0.66 -0.66)" style="fill:#9ccb3c"/><path d="M12.5.66A11.84,11.84,0,1,0,24.34,12.5,11.84,11.84,0,0,0,12.5.66ZM17.11,17.1A6.5,6.5,0,0,1,6,12.5v-.07L5.44,13a.35.35,0,0,1-.5-.5l1.18-1.18a.35.35,0,0,1,.5,0l1.17,1.18a.35.35,0,0,1,0,.5.36.36,0,0,1-.25.1.35.35,0,0,1-.25-.1l-.58-.58v.07a5.8,5.8,0,1,0,1.65-4A.35.35,0,1,1,7.86,8a6.5,6.5,0,1,1,9.25,9.13Zm-2.24-6.47-4.3,4.3a.36.36,0,0,1-.25.1.35.35,0,0,1-.25-.6l4.3-4.3a.35.35,0,1,1,.5.49ZM15,13a1.25,1.25,0,1,1-.89-.37A1.25,1.25,0,0,1,15,13ZM11.79,12a1.25,1.25,0,1,1,.37-.89A1.25,1.25,0,0,1,11.79,12Z" transform="translate(-0.66 -0.66)" style="fill:#9ccb3c"/><path d="M13.74,13.52a.55.55,0,0,0,.39.94.54.54,0,0,0,.39-.16.55.55,0,0,0-.39-.94A.54.54,0,0,0,13.74,13.52Z" transform="translate(-0.66 -0.66)" style="fill:#9ccb3c"/></svg>