<?xml version="1.0" encoding="UTF-8" standalone="no"?>
<svg width="24px" height="24px" viewBox="0 0 24 24" version="1.1" xmlns="http://www.w3.org/2000/svg" xmlns:xlink="http://www.w3.org/1999/xlink">
    <!-- Generator: Sketch 3.6.1 (26313) - http://www.bohemiancoding.com/sketch -->
    <title>Group</title>
    <desc>Created with Sketch.</desc>
    <defs></defs>
    <g id="Page-1" stroke="none" stroke-width="1" fill="none" fill-rule="evenodd">
        <g id="1468529400_office-40" fill="#333333">
            <g id="Group">
                <path d="M21.8,5.2 C19.7,2 16.1,0 12,0 C5.4,0 0,5.4 0,12 L2,12 C2,6.5 6.5,2 12,2 C15.5,2 18.6,3.8 20.4,6.6 L18,9 L24,9 L24,3 L21.8,5.2 L21.8,5.2 Z" id="Shape"></path>
                <circle id="Oval" cx="4" cy="12" r="1"></circle>
                <circle id="Oval" cx="6.3" cy="6.3" r="1"></circle>
                <circle id="Oval" cx="17.7" cy="6.3" r="1"></circle>
                <circle id="Oval" cx="20" cy="12" r="1"></circle>
                <path d="M16.9,18.4 C17.3,18.8 17.9,18.8 18.3,18.4 C18.7,18 18.7,17.4 18.3,17 C17.9,16.6 17.3,16.6 16.9,17 C16.6,17.3 16.6,18 16.9,18.4 L16.9,18.4 Z" id="Shape"></path>
                <circle id="Oval" cx="12" cy="20" r="1"></circle>
                <path d="M5.6,16.9 C5.2,17.3 5.2,17.9 5.6,18.3 C6,18.7 6.6,18.7 7,18.3 C7.4,17.9 7.4,17.3 7,16.9 C6.7,16.6 6,16.6 5.6,16.9 L5.6,16.9 Z" id="Shape"></path>
                <path d="M12,3 C11.4,3 11,3.4 11,4 L11,10.3 C10.4,10.6 10,11.3 10,12 C10,13.1 10.9,14 12,14 C12.2,14 12.3,14 12.5,13.9 L14.1,15.5 C14.5,15.9 15.1,15.9 15.5,15.5 C15.9,15.1 15.9,14.5 15.5,14.1 L13.9,12.5 C13.9,12.3 14,12.2 14,12 C14,11.3 13.6,10.6 13,10.3 L13,4 C13,3.4 12.6,3 12,3 L12,3 Z M11,12 C11,11.4 11.4,11 12,11 C12.6,11 13,11.4 13,12 C13,12.6 12.6,13 12,13 C11.9,13 11.7,13 11.6,12.9 C11.5,12.8 11.4,12.8 11.3,12.7 L11.3,12.7 C11.1,12.5 11,12.3 11,12 L11,12 Z" id="Shape"></path>
                <path d="M12,22 C8.5,22 5.4,20.2 3.6,17.4 L6,15 L0,15 L0,21 L2.2,18.8 C4.3,21.9 7.9,24 12,24 C18.6,24 24,18.6 24,12 L22,12 C22,17.5 17.5,22 12,22 L12,22 Z" id="Shape"></path>
            </g>
        </g>
    </g>
</svg>