<svg xmlns="http://www.w3.org/2000/svg" width="23.69" height="23.69" viewBox="0 0 23.69 23.69"><title>monitoring</title><path d="M17.48,10c-1,0-3.52.09-3.69,1.64A3.08,3.08,0,0,0,17.16,15c3.32,0,3.65-.57,4-3.15C21.37,10,19.43,10,17.48,10Z" transform="translate(-0.66 -0.66)" style="fill:#9ccb3c"/><path d="M7.52,10c-2,0-3.88.05-3.65,1.9.33,2.59.66,3.16,4,3.15A3.08,3.08,0,0,0,11.2,11.6C11,10.05,8.53,9.95,7.52,10Z" transform="translate(-0.66 -0.66)" style="fill:#9ccb3c"/><path d="M12.5.66A11.84,11.84,0,1,0,24.34,12.5,11.84,11.84,0,0,0,12.5.66Zm-.81,12,0,.19C10.5,16,8.32,15.65,6.14,15.58s-2.72-2.31-2.85-3.12-.51-.81-.51-.81a3.22,3.22,0,0,1-.34,0,.12.12,0,0,1-.11-.1l-.06-1.37c5.67-1.54,8.37-.47,9.26,0h0A17.26,17.26,0,0,1,11.69,12.68Zm1.2,0s-.13.1-.22.05-.11-.09-.18-.09h0c-.07,0-.08,0-.18.09s-.22-.05-.22-.05a18.57,18.57,0,0,0-.16-2.63c.2-.1.48.15.55.15h0c.08,0,.35-.25.55-.15A18.54,18.54,0,0,0,12.9,12.72Zm9.66-1.08a3.23,3.23,0,0,1-.34,0s-.38,0-.51.81-.54,3-2.85,3.12-4.36.44-5.53-2.7l0-.2a17.41,17.41,0,0,1,.16-2.54h0c.89-.43,3.59-1.49,9.26,0l-.06,1.37A.12.12,0,0,1,22.56,11.64Z" transform="translate(-0.66 -0.66)" style="fill:#9ccb3c"/></svg>