<svg xmlns="http://www.w3.org/2000/svg" width="23.69" height="23.69" viewBox="0 0 23.69 23.69"><title>monthlyreports</title><path d="M6.78,17.67h9.71V5.83H6.78ZM7.93,7.31h7.54V8H7.93Zm0,2.19h7.54v.69H7.93ZM8.21,13a.83.83,0,0,1,.83.83.78.78,0,0,1,0,.22l.88.72a.67.67,0,0,1,.68-.11l1.36-2a.79.79,0,0,1-.13-.41.83.83,0,1,1,1.65,0s0,0,0,0l1.06.62a.82.82,0,1,1-.3.63s0,0,0,0l-1.06-.62a.82.82,0,0,1-.52.19,1,1,0,0,1-.16,0l-1.39,2.08a.81.81,0,0,1,.09.36.83.83,0,0,1-1.66,0,.59.59,0,0,1,0-.11l-.95-.77a.81.81,0,0,1-.36.09.83.83,0,0,1,0-1.66Z" transform="translate(-0.66 -0.66)" style="fill:#9ccb3c"/><path d="M12.5.66A11.84,11.84,0,1,0,24.34,12.5,11.84,11.84,0,0,0,12.5.66ZM6.11,5.17h11V18.33h-11ZM18.89,19.83h-11V18.7h.67v.46h9.71V7.33H17.6V6.66h1.29Z" transform="translate(-0.66 -0.66)" style="fill:#9ccb3c"/></svg>