<?xml version="1.0" encoding="UTF-8" standalone="no"?>
<svg width="20px" height="17px" viewBox="0 0 20 17" version="1.1" xmlns="http://www.w3.org/2000/svg" xmlns:xlink="http://www.w3.org/1999/xlink">
    <!-- Generator: Sketch 3.6.1 (26313) - http://www.bohemiancoding.com/sketch -->
    <title>Group</title>
    <desc>Created with Sketch.</desc>
    <defs></defs>
    <g id="Page-1" stroke="none" stroke-width="1" fill="none" fill-rule="evenodd">
        <g id="RedTrain3--hover" fill="#571100">
            <g id="Group">
                <path d="M13.3,15.012 C12.411,15.369 11.458,15.543 10.5,15.522 C7.607,15.489 5.008,13.746 3.88,11.082 C3.508,10.252 3.317,9.352 3.32,8.442 C3.306,8.204 3.323,7.966 3.37,7.732 L2.09,7.732 C2.064,7.968 2.064,8.206 2.09,8.442 C2.085,13.121 5.871,16.921 10.55,16.932 C13.144,16.961 15.604,15.777 17.2,13.732 L15.48,13.732 C14.81,13.722 14.09,14.672 13.3,15.012 L13.3,15.012 Z" id="Shape"></path>
                <path d="M5.42,3.382 C6.072,2.695 6.849,2.138 7.71,1.742 C11.306,0.151 15.511,1.777 17.102,5.374 C17.506,6.287 17.713,7.274 17.71,8.272 L17.71,8.822 C17.9,8.962 18.09,9.102 18.28,9.212 C18.477,9.331 18.7,9.399 18.93,9.412 C18.982,9.034 19.009,8.653 19.01,8.272 C18.995,3.688 15.266,-0.016 10.682,6.77626358e-21 C10.638,6.77626358e-21 10.594,0.001 10.55,0.001 C7.72,0.001 5.21,0.721 3.68,3.721 L5.32,3.721 C5.361,3.611 5.395,3.497 5.42,3.382 L5.42,3.382 Z" id="Shape"></path>
                <path d="M13.61,7.182 C13.75,7.592 13.31,7.722 12.89,7.722 L4.1,7.722 C4.181,8.791 5.031,9.641 6.1,9.722 L10.68,9.722 C12.83,9.722 14.21,10.722 15.38,12.722 L20,12.722 L18.7,10.562 C17.77,10.562 16.56,9.172 15.91,8.882 C16.481,8.367 16.707,7.57 16.49,6.832 C15.86,5.062 14.2,4.722 12.2,4.722 L0,4.722 C0.081,5.791 0.931,6.641 2,6.722 L12.82,6.722 C13.163,6.643 13.509,6.844 13.61,7.182 L13.61,7.182 Z" id="Shape"></path>
                <path d="M8.12,10.722 C8.201,11.791 9.051,12.641 10.12,12.722 L13.68,12.722 C13.094,11.58 11.959,10.823 10.68,10.722 L8.13,10.722 L8.12,10.722 L8.12,10.722 Z" id="Shape"></path>
            </g>
        </g>
    </g>
</svg>