<svg xmlns="http://www.w3.org/2000/svg" width="23.69" height="23.69" viewBox="0 0 23.69 23.69"><title>vps</title><path d="M16.32,12.44H8.68a2,2,0,1,0,0,4h4.86V15.3l-.46.46a.58.58,0,1,1-.82-.83l1.45-1.44a.58.58,0,0,1,.82,0L16,14.93a.58.58,0,0,1-.82.83l-.46-.46v1.14h1.63a2,2,0,0,0,0-4ZM8.78,15H8.53a.58.58,0,0,1,0-1.16h.25a.58.58,0,0,1,0,1.16ZM11,15h-.25a.58.58,0,0,1,0-1.16H11A.58.58,0,0,1,11,15Z" transform="translate(-0.66 -0.66)" style="fill:#9ccb3c"/><path d="M16.32,7.28H8.68a2,2,0,1,0,0,4h7.65a2,2,0,0,0,0-4ZM8.66,9.86H8.4a.58.58,0,0,1,0-1.16h.25a.58.58,0,0,1,0,1.16Zm2.18,0h-.25a.58.58,0,0,1,0-1.16h.25a.58.58,0,1,1,0,1.16Z" transform="translate(-0.66 -0.66)" style="fill:#9ccb3c"/><path d="M12.5.66A11.84,11.84,0,1,0,24.34,12.5,11.84,11.84,0,0,0,12.5.66Zm7,13.78a3.17,3.17,0,0,1-3.16,3.16H14.7v1.91a.58.58,0,0,1-1.16,0V17.6H8.68a3.16,3.16,0,0,1-1.83-5.74A3.16,3.16,0,0,1,8.68,6.12h7.65a3.16,3.16,0,0,1,1.83,5.74A3.17,3.17,0,0,1,19.49,14.44Z" transform="translate(-0.66 -0.66)" style="fill:#9ccb3c"/></svg>